<svg id="Layer_1" data-name="Layer 1" xmlns="http://www.w3.org/2000/svg" viewBox="0 0 150 50"><defs><style>.cls-1{fill:#fff;}</style></defs><title>company-logo</title><path class="cls-1" d="M18.07,12.48c-.87-5.28-2.59-10.55-6-12.4,0,0-4.49,2.53-6.24,12.5-2.19,1-9,5-4.11,15.82,0,0,1.78-3.54,3.5-4,0,.34,0,.7.06,1.06l2.19.14L6,32.27H18.65L16.82,25.7l2.06,0s0-.51,0-1.38c1.73.51,3.52,4.06,3.52,4.06C27.52,17.14,19.93,13.24,18.07,12.48ZM5.2,22.76,2,25.47s-3.61-6.91,3.48-11.08A77.24,77.24,0,0,0,5.2,22.76Zm7-20.65a27.67,27.67,0,0,1,3.1,4.78H9.12A28,28,0,0,1,12.21,2.11ZM7.71,31,9,26.09h6.47L16.72,31Zm10.05-6.37H6.68V21.83H17.76ZM6.68,20.38S7.33,10,9,7.68h6.5s1.55,3,2.24,12.7ZM22.4,25.47l-3.17-2.71a77.24,77.24,0,0,0-.31-8.37C26,18.56,22.4,25.47,22.4,25.47Z"/><path class="cls-1" d="M12.08,9.3a3.44,3.44,0,1,0,3.44,3.44A3.44,3.44,0,0,0,12.08,9.3Zm0,5.75a2.31,2.31,0,1,1,2.3-2.31A2.3,2.3,0,0,1,12.08,15.05Z"/><rect class="cls-1" x="9.39" y="17.7" width="5.61" height="1.2"/><path class="cls-1" d="M13.3,34.3h0a3.68,3.68,0,0,0-2.13,0h0a5.78,5.78,0,0,0-3.5,8.08A47.23,47.23,0,0,0,12.21,50a47.48,47.48,0,0,0,4.6-7.63A5.79,5.79,0,0,0,13.3,34.3ZM15.84,42a36.83,36.83,0,0,1-3.62,6,37,37,0,0,1-3.63-6,4.56,4.56,0,0,1,2.77-6.38h0a3,3,0,0,1,1.69,0h0A4.56,4.56,0,0,1,15.84,42Z"/><path class="cls-1" d="M17.1,33.4h0a1.86,1.86,0,0,0-.86.49h0a2.66,2.66,0,0,0,.41,4,22,22,0,0,0,3.57,2,21.82,21.82,0,0,0,.13-4.11A2.67,2.67,0,0,0,17.1,33.4Zm2.76,2.52a17.62,17.62,0,0,1-.11,3.25,16.72,16.72,0,0,1-2.82-1.62,2.09,2.09,0,0,1-.32-3.19h0a1.4,1.4,0,0,1,.68-.38h0A2.11,2.11,0,0,1,19.86,35.92Z"/><path class="cls-1" d="M8.12,33.53h0a1.73,1.73,0,0,0-.88-.45h0a2.66,2.66,0,0,0-3.14,2.58,22.05,22.05,0,0,0,.27,4.1,21.57,21.57,0,0,0,3.5-2.16A2.67,2.67,0,0,0,8.12,33.53Zm-.58,3.68a16.79,16.79,0,0,1-2.76,1.71,17.59,17.59,0,0,1-.22-3.24,2.11,2.11,0,0,1,2.49-2h0a1.39,1.39,0,0,1,.7.36h0A2.1,2.1,0,0,1,7.54,37.21Z"/><path class="cls-1" d="M48.92,16.93q0,8.15-2.44,12.53a7.84,7.84,0,0,1-14.09,0Q30,25,30,16.88q0-8.49,2.38-12.64A7.71,7.71,0,0,1,39.51.08a7.62,7.62,0,0,1,7,4.37Q48.93,8.82,48.92,16.93Zm-16.64,0q0,7.32,1.83,11.06t5.33,3.74Q43,31.73,44.8,28t1.83-11.09q0-7.3-1.8-11c-1.19-2.48-3-3.72-5.32-3.72S35.29,3.45,34.09,6,32.28,12.12,32.28,16.93Z"/><path class="cls-1" d="M57.21,19V33.39H55V.55H59.5q4.81,0,7,2.27C68,4.33,68.76,6.59,68.76,9.6a11.55,11.55,0,0,1-1.22,5.62,7.45,7.45,0,0,1-4.06,3.3L70,33.39H67.52L61.39,19Zm0-2h3.08a5.79,5.79,0,0,0,4.6-1.85,8.06,8.06,0,0,0,1.62-5.48q0-3.7-1.65-5.34c-1.1-1.1-2.84-1.64-5.2-1.64H57.21Z"/><path class="cls-1" d="M74.55.55h6.29a8.28,8.28,0,0,1,5.94,2,7.67,7.67,0,0,1,2.08,5.84Q88.86,15,84,16v.17a6.49,6.49,0,0,1,4.18,2.51,9.14,9.14,0,0,1,1.37,5.36,10.84,10.84,0,0,1-2,6.87,6.58,6.58,0,0,1-5.48,2.47H74.55Zm2.2,14.62h4.14q3.08,0,4.39-1.69a8.41,8.41,0,0,0,1.31-5.16,5.82,5.82,0,0,0-1.45-4.26,5.74,5.74,0,0,0-4.3-1.49H76.75Zm0,2V31.37h5.06q5.43,0,5.43-7.37a7.27,7.27,0,0,0-1.59-5,5.72,5.72,0,0,0-4.47-1.76Z"/><path class="cls-1" d="M94.92,33.39V.55h2.21V33.39Z"/><path class="cls-1" d="M109.77,33.39h-2.2V2.66H101V.55h15.28V2.66h-6.54Z"/><path class="cls-1" d="M132.7,33.39l-2.89-11.9h-8L119,33.39h-2.29L124.59.55h2.27L135,33.39Zm-3.41-14.13L126.39,7c-.3-1.38-.53-2.68-.69-3.91A37.85,37.85,0,0,1,125.07,7l-2.81,12.24Z"/><path class="cls-1" d="M138.54,33.39V.55h2.21V31.28H150v2.11Z"/><path class="cls-1" d="M35.83,43.87q0,6-3.73,6H30V38.12h2.13a3.06,3.06,0,0,1,2.75,1.47A8,8,0,0,1,35.83,43.87Zm-.83.05a7.84,7.84,0,0,0-.73-3.78,2.33,2.33,0,0,0-2.15-1.3H30.8V49.13h1.25a2.38,2.38,0,0,0,2.24-1.34A8.29,8.29,0,0,0,35,43.92Z"/><path class="cls-1" d="M44.4,49.85V38.12h.79V49.85Z"/><path class="cls-1" d="M57.47,38.69a2.36,2.36,0,0,0-2.1,1.4A8,8,0,0,0,54.59,44,9.83,9.83,0,0,0,55,46.78a4.13,4.13,0,0,0,1,1.83,2.19,2.19,0,0,0,1.56.64,3.62,3.62,0,0,0,1.58-.32v.72a3.31,3.31,0,0,1-1.65.36,2.91,2.91,0,0,1-1.95-.72,4.56,4.56,0,0,1-1.29-2.09A10.15,10.15,0,0,1,53.77,44a8.28,8.28,0,0,1,1-4.41,3.05,3.05,0,0,1,2.72-1.6,3.51,3.51,0,0,1,1.88.49l-.37.69A2.82,2.82,0,0,0,57.47,38.69Z"/><path class="cls-1" d="M69.41,49.85h-.78v-11H66.29v-.76h5.46v.76H69.41Z"/><path class="cls-1" d="M79.57,49.85V38.12h.79V49.85Z"/><path class="cls-1" d="M95.7,44a9.32,9.32,0,0,1-.87,4.47,2.8,2.8,0,0,1-5,0A9.4,9.4,0,0,1,88.94,44a9.29,9.29,0,0,1,.85-4.51A2.77,2.77,0,0,1,92.34,38a2.73,2.73,0,0,1,2.5,1.56A9.43,9.43,0,0,1,95.7,44Zm-5.94,0a9.25,9.25,0,0,0,.65,4,2,2,0,0,0,3.82,0,9.37,9.37,0,0,0,.65-4A9.38,9.38,0,0,0,94.24,40a2,2,0,0,0-1.9-1.32,2.08,2.08,0,0,0-1.94,1.34A9.37,9.37,0,0,0,89.76,44Z"/><path class="cls-1" d="M110.46,49.85h-1L105,39.33H105c.07.73.1,1.43.1,2.1v8.42h-.77V38.12h1l4.4,10.4h0c0-.88-.06-1.61-.06-2.2v-8.2h.77Z"/><path class="cls-1" d="M123.86,49.85l-1-4.25H120l-1,4.25h-.81L121,38.12h.81l2.89,11.73Zm-1.21-5.05-1-4.37c-.11-.49-.19-1-.25-1.39a13.38,13.38,0,0,1-.22,1.39l-1,4.37Z"/><path class="cls-1" d="M133.14,44.72v5.13h-.78V38.12H134a3.4,3.4,0,0,1,2.51.81,3.33,3.33,0,0,1,.8,2.42,4.1,4.1,0,0,1-.44,2,2.68,2.68,0,0,1-1.45,1.18l2.33,5.31h-.89l-2.18-5.13Zm0-.72h1.1a2.09,2.09,0,0,0,1.65-.66,2.91,2.91,0,0,0,.57-2,2.57,2.57,0,0,0-.59-1.91,2.54,2.54,0,0,0-1.85-.59h-.88Z"/><path class="cls-1" d="M147.22,44.18l1.9-6.06H150l-2.37,7.15v4.58h-.78V45.27l-2.35-7.15h.83Z"/></svg>