<svg id="Layer_1" data-name="Layer 1" xmlns="http://www.w3.org/2000/svg" viewBox="0 0 50 50"><defs><style>.cls-1{fill:#fff;}</style></defs><title>company-logo</title><path class="cls-1" d="M32.64,20.29C31.54,13.55,29.34,6.83,25,4.47c0,0-5.73,3.23-7.95,16C14.24,21.67,5.57,26.8,11.8,40.6c0,0,2.27-4.52,4.47-5.18,0,.45,0,.9.07,1.36l2.79.19-1.86,8.56H33.38l-2.33-8.38,2.63,0s0-.65,0-1.76c2.21.64,4.49,5.18,4.49,5.18C44.69,26.23,35,21.26,32.64,20.29ZM16.22,33.39l-4,3.47S7.57,28,16.62,22.73C16.62,22.73,15.91,31.42,16.22,33.39Zm9-26.33a35.06,35.06,0,0,1,4,6.1h-7.9A35.11,35.11,0,0,1,25.17,7.06ZM19.43,43.93l1.62-6.28H29.3l1.63,6.28ZM32.24,35.8H18.11V32.21H32.24ZM18.11,30.37s.83-13.26,3-16.2h8.3s2,3.77,2.85,16.2Zm20.06,6.49-4-3.47c.31-2-.4-10.66-.4-10.66C42.78,28,38.17,36.86,38.17,36.86Z"/><path class="cls-1" d="M25,16.23a4.39,4.39,0,1,0,4.39,4.39A4.4,4.4,0,0,0,25,16.23Zm0,7.33a2.94,2.94,0,1,1,2.94-2.94A2.94,2.94,0,0,1,25,23.56Z"/><rect class="cls-1" x="21.58" y="26.94" width="7.15" height="1.54"/><path class="cls-1" d="M25,50A25,25,0,1,1,50,25,25,25,0,0,1,25,50ZM25,1A24,24,0,1,0,49,25,24.05,24.05,0,0,0,25,1Z"/></svg>