<svg id="Layer_1" data-name="Layer 1" xmlns="http://www.w3.org/2000/svg" viewBox="0 0 100 100"><defs><style>.cls-1{fill:#202121;}</style></defs><title>favicon</title><path class="cls-1" d="M65.28,40.58C63.08,27.09,58.68,13.66,50,8.94c0,0-11.46,6.45-15.91,31.9-5.6,2.5-23,12.75-10.5,40.35,0,0,4.55-9,8.94-10.34,0,.89.09,1.79.15,2.71l5.58.37L34.54,91.06H66.76L62.1,74.3l5.26,0s0-1.29.07-3.51c4.41,1.28,9,10.35,9,10.35C89.38,52.46,70,42.52,65.28,40.58ZM32.44,66.79l-8.07,6.93s-9.22-17.64,8.86-28.26C33.23,45.46,31.83,62.84,32.44,66.79ZM50.35,14.12c3.77,4.13,7.9,12.2,7.9,12.2H42.45S46.57,18.25,50.35,14.12ZM38.85,87.86,42.1,75.3H58.6l3.25,12.56ZM64.48,71.6H36.22V64.42H64.48ZM36.22,60.73s1.67-26.51,6-32.39H58.78s3.95,7.55,5.7,32.39Zm40.11,13-8.07-6.93c.61-4-.79-21.33-.79-21.33C85.55,56.08,76.33,73.72,76.33,73.72Z" transform="translate(0)"/><path class="cls-1" d="M50,32.47a8.78,8.78,0,1,0,8.78,8.77A8.78,8.78,0,0,0,50,32.47Zm0,14.66a5.89,5.89,0,1,1,5.88-5.89A5.89,5.89,0,0,1,50,47.13Z" transform="translate(0)"/><rect class="cls-1" x="43.15" y="53.88" width="14.31" height="3.07"/><path class="cls-1" d="M50,100a50,50,0,1,1,50-50A50.06,50.06,0,0,1,50,100ZM50,2A48,48,0,1,0,98,50,48.09,48.09,0,0,0,50,2Z" transform="translate(0)"/></svg>